<svg version="1.2" xmlns="http://www.w3.org/2000/svg" viewBox="0 0 1000 1000" width="1000" height="1000">
	<style>
		.s0 { mix-blend-mode: hue;fill: #000000 } 
	</style>
	<path class="s0" d="m610.99 449.97c21.71-53 43.34-105.55 64.8-158.17 9.47-23.2 30.94-38.62 54.21-38.43 26.55 0.21 46.64 19.54 46.24 46.11-0.31 19.94-2.45 39.86-3.83 59.78-0.94 13.48-1.99 26.94-3 40.41q-2.81 37.48-5.63 74.96c-0.45 6.06-0.76 12.12-1.38 18.16-0.49 4.77 1.13 6.59 6.16 6.57 33.53-0.17 67.07-0.09 100.6-0.06 2.31 0.01 4.7-0.49 6.93 0.66 1.17 2.41-0.54 4.21-1.35 6.05-29.62 67.48-59.23 134.96-89.01 202.37-10.83 24.49-32.35 38.38-57.27 37.56-28.62-0.95-47.62-24.1-43.87-52.3 3.12-23.45 5.06-47.06 7.59-70.59 2.22-20.6 4.59-41.19 6.79-61.8 2.5-23.54 4.89-47.08 7.32-70.62 0.1-0.97 0.07-1.96 0.19-2.93 1.39-11.32 1.4-11.32-10.23-11.32-11.77 0-23.54 0.15-35.3-0.09-4.39-0.1-6.56 1.56-8.29 5.58-32.43 75.23-65.1 150.36-97.48 225.6-10.07 23.38-26.93 37.41-52.6 38.95-21.78 1.32-44.26-11.28-48.1-37.95-2.17-15.14 1.56-30.01 2.8-44.97 1.43-17.34 3.59-34.61 5.43-51.92q3.38-31.79 6.71-63.58c2.31-22.19 4.56-44.37 6.85-66.56 0.36-3.53-1.27-5.05-4.74-5.04-14.12 0.04-28.24 0.1-42.36-0.01-4.22-0.04-5.69 2.63-7.08 5.83q-16.51 38.02-33.07 76.01c-22 50.49-43.84 101.05-66.09 151.43-9.96 22.54-27.55 35.67-52.36 36.77-21.59 0.95-41.95-11.03-46.85-37.43-2.04-11.02-0.02-21.89 0.58-32.79 1.02-18.56 2.79-37.08 4.19-55.62 1.92-25.56 3.93-51.12 5.61-76.71 0.74-11.33 1.43-22.65 2.53-33.96 0.74-7.65-0.68-8.95-8.39-8.96-32.16-0.03-64.32-0.01-96.48-0.07-2.86 0-5.89 0.71-8.46-1.21-0.9-2.23 0.43-3.89 1.19-5.61q33.87-76.64 67.78-153.26 10.94-24.74 21.9-49.46c8.46-19.05 22.05-32.71 42.8-36.94 36.44-7.43 60.84 16.82 57.78 52.49-1.79 20.87-3.66 41.73-5.46 62.6q-2.79 32.18-5.5 64.38c-1.73 20.48-3.38 40.97-5.09 61.45-0.6 7.22-1.01 14.46-2 21.62-0.7 5.07 0.55 7.21 6.03 7.11 13.33-0.26 26.67-0.3 40 0.03 4.9 0.12 7.47-1.57 9.27-6.05 8.9-22.19 18.02-44.29 27.08-66.41 21.98-53.69 43.88-107.4 66-161.02 7.91-19.17 21.79-32.11 42.39-36.35 31-6.38 54.64 12.1 57.35 40.21 1.24 12.82-1.04 25.39-1.78 38.06-1.02 17.58-2.81 35.11-4.28 52.67-1.84 22.04-3.7 44.08-5.51 66.13q-1.98 24.29-3.87 48.59c-0.47 6.04-0.81 12.1-1.26 18.15-0.28 3.83 1.1 5.92 5.27 5.9 14.31-0.07 28.63-0.1 42.95 0.02 4.4 0.04 5.49-3.1 6.76-6.18q11.61-28.28 23.21-56.57c1.48-3.62 3.02-7.23 4.68-11.27z"/>
</svg>