<svg xmlns="http://www.w3.org/2000/svg" width="1000" height="1000" viewBox="0 0 1000 1000" version="1.1" data-svgtrace="1" data-svgtrace-version="1"><path d="M 1 500 L 1 999 500 999 L 999 999 999 500 L 999 1 500 1 L 1 1 1 500 M 275.500 289.164 C 266.538 290.850, 256.703 296.512, 249.533 304.113 C 241.917 312.186, 241.294 313.415, 217.178 368 C 207.823 389.175, 191.130 426.926, 180.084 451.892 C 169.038 476.857, 160 497.890, 160 498.632 C 160 499.742, 168.639 500.027, 208.750 500.240 L 257.500 500.500 257.239 505 C 256.904 510.766, 249.429 615.233, 247.481 641.372 C 244.822 677.051, 245.604 685.283, 252.640 695.678 C 256.455 701.315, 264.062 707.094, 270.728 709.420 C 285.239 714.484, 303.973 710.419, 316.826 699.417 C 325.201 692.248, 328.737 684.914, 374.041 580.750 L 418.295 479 441.209 479 L 464.123 479 463.542 483.250 C 463.223 485.587, 459.824 517.875, 455.988 555 C 452.152 592.125, 447.844 633.525, 446.415 647 C 443.620 673.359, 443.710 679.477, 447.027 688.343 C 453.187 704.807, 472.997 714.636, 492.149 710.730 C 505.987 707.908, 516.416 701.128, 523.678 690.234 C 525.871 686.944, 546.469 640.692, 571.990 581.750 L 616.481 479 639.240 479 L 662 479 662 482.063 C 662 483.748, 657.457 527.510, 651.904 579.313 C 642.654 665.613, 641.906 674.043, 642.973 679.989 C 646.232 698.147, 659.377 709.559, 678.404 710.746 C 688.104 711.351, 694.751 710.056, 703.835 705.791 C 712.262 701.834, 721.482 692.639, 726.185 683.500 C 731.499 673.175, 806 503.318, 806 501.528 C 806 500.178, 800.285 500, 756.950 500 L 707.901 500 708.476 494.250 C 708.793 491.087, 711.068 460.375, 713.532 426 C 715.997 391.625, 718.460 357.963, 719.006 351.196 C 720.597 331.501, 720.306 321.845, 717.908 314.727 C 714.219 303.775, 707.943 297.053, 696.500 291.797 C 692.247 289.843, 689.856 289.500, 680.500 289.500 C 669.874 289.500, 669.236 289.626, 661.734 293.208 C 653.129 297.317, 644.805 304.512, 640.010 311.985 C 638.334 314.597, 618.146 362.581, 595.149 418.617 L 553.335 520.500 529.684 520.768 L 506.033 521.036 506.550 516.768 C 506.834 514.421, 509.980 476.275, 513.542 432 C 517.104 387.725, 520.465 346.100, 521.012 339.500 C 522.678 319.380, 519.390 308.280, 508.884 298.553 C 499.232 289.617, 486.994 286.463, 473.235 289.366 C 459.977 292.163, 447.119 301.296, 440.473 312.636 C 438.171 316.565, 408.429 388.479, 366.196 492.234 L 354.500 520.967 331.250 520.984 L 308 521 308.003 518.250 C 308.005 516.737, 311.553 473.200, 315.887 421.500 C 322.123 347.116, 323.585 326.186, 322.892 321.204 C 320.550 304.379, 308.881 292.201, 292.040 289.008 C 285.856 287.835, 282.393 287.868, 275.500 289.164" stroke="none" fill="#000000" fill-rule="evenodd"/><path d="M 275.500 289.164 C 266.538 290.850, 256.703 296.512, 249.533 304.113 C 241.917 312.186, 241.294 313.415, 217.178 368 C 207.823 389.175, 191.091 426.975, 179.996 452 C 168.901 477.025, 159.591 498.058, 159.308 498.741 C 158.903 499.716, 169.336 500.036, 208.147 500.241 L 257.500 500.500 257.240 505 C 256.876 511.289, 250.396 601.803, 247.934 635 C 245.426 668.800, 245.348 677.207, 247.474 684.696 C 252.975 704.079, 272.631 715.093, 293.765 710.634 C 301.804 708.938, 310.835 704.545, 316.826 699.417 C 325.201 692.248, 328.737 684.914, 374.041 580.750 L 418.295 479 441.209 479 L 464.123 479 463.542 483.250 C 463.223 485.587, 459.824 517.875, 455.988 555 C 452.152 592.125, 447.844 633.525, 446.415 647 C 443.620 673.359, 443.710 679.477, 447.027 688.343 C 453.187 704.807, 472.997 714.636, 492.149 710.730 C 505.987 707.908, 516.416 701.128, 523.678 690.234 C 525.871 686.944, 546.469 640.692, 571.990 581.750 L 616.481 479 639.240 479 L 662 479 662 482.063 C 662 483.748, 657.457 527.510, 651.904 579.313 C 642.654 665.613, 641.906 674.043, 642.973 679.989 C 646.232 698.147, 659.377 709.559, 678.404 710.746 C 688.104 711.351, 694.751 710.056, 703.835 705.791 C 712.262 701.834, 721.482 692.639, 726.185 683.500 C 728.890 678.244, 804.113 508.040, 806.732 501.250 C 807.114 500.260, 796.873 500, 757.557 500 L 707.901 500 708.476 494.250 C 708.793 491.087, 711.068 460.375, 713.532 426 C 715.997 391.625, 718.460 357.963, 719.006 351.196 C 720.597 331.501, 720.306 321.845, 717.908 314.727 C 714.219 303.775, 707.943 297.053, 696.500 291.797 C 692.247 289.843, 689.856 289.500, 680.500 289.500 C 669.874 289.500, 669.236 289.626, 661.734 293.208 C 653.129 297.317, 644.805 304.512, 640.010 311.985 C 638.334 314.597, 618.146 362.581, 595.149 418.617 L 553.335 520.500 529.684 520.768 L 506.033 521.036 506.550 516.768 C 506.834 514.421, 509.980 476.275, 513.542 432 C 517.104 387.725, 520.465 346.100, 521.012 339.500 C 522.678 319.380, 519.390 308.280, 508.884 298.553 C 499.232 289.617, 486.994 286.463, 473.235 289.366 C 459.977 292.163, 447.119 301.296, 440.473 312.636 C 438.171 316.565, 408.429 388.479, 366.196 492.234 L 354.500 520.967 331.250 520.984 L 308 521 308.003 518.250 C 308.005 516.737, 311.553 473.200, 315.887 421.500 C 322.123 347.116, 323.585 326.186, 322.892 321.204 C 320.550 304.379, 308.881 292.201, 292.040 289.008 C 285.856 287.835, 282.393 287.868, 275.500 289.164" stroke="none" fill="#ffffff" fill-rule="evenodd"/></svg>