<svg xmlns="http://www.w3.org/2000/svg" width="1000" height="1000" viewBox="0 0 1000 1000" version="1.1" data-svgtrace="1" data-svgtrace-version="1"><path d="M 298.628 297.110 C 287.117 299.813, 273.027 311.092, 267.475 322.048 C 264.343 328.230, 189.913 495.893, 189.255 498.250 C 188.795 499.899, 191.517 500, 236.433 500 L 284.099 500 283.508 505.750 C 282.896 511.703, 273.585 639.442, 272.410 658 C 271.023 679.917, 277.629 693.291, 293.500 700.699 C 298.896 703.218, 300.557 703.497, 310 703.468 C 322.402 703.431, 328.566 701.442, 337.743 694.518 C 349.348 685.761, 343.121 698.742, 416.538 530.250 L 438.434 480 460.217 480 L 482 480 482 483.608 C 482 486.739, 469.612 608.342, 465.473 645.845 C 464.663 653.185, 464 662.731, 464 667.058 C 464 684.378, 473.191 697.157, 489.240 702.152 C 508.712 708.212, 530.513 699.447, 542.251 680.838 C 543.175 679.374, 548.849 666.774, 554.860 652.838 C 566.356 626.189, 613.615 517.067, 623.651 494 L 629.525 480.500 651.909 480.230 L 674.293 479.961 673.703 486.730 C 673.378 490.454, 669.001 531.750, 663.976 578.500 C 657.838 635.604, 654.979 665.854, 655.265 670.673 C 656.579 692.850, 678.016 707.645, 701.617 702.665 C 715.313 699.775, 727.798 691.099, 734.236 680 C 737.296 674.723, 813 502.808, 813 501.134 C 813 500.304, 800.266 500, 765.547 500 L 718.094 500 718.593 495.250 C 719.124 490.201, 727.107 379.863, 729.147 349.394 C 730.232 333.176, 730.183 330.578, 728.679 324.480 C 724.764 308.617, 713.046 298.649, 695.775 296.491 C 680.528 294.586, 662.078 303.875, 652.980 318.036 C 650.311 322.191, 636.792 354.586, 587.477 475 C 577.679 498.925, 569.233 519.063, 568.709 519.750 C 567.997 520.683, 562.204 521, 545.878 521 L 524 521 524 516.590 C 524 514.164, 527.179 473.776, 531.064 426.840 C 535.442 373.945, 537.990 338.078, 537.766 332.500 C 537.477 325.304, 536.853 322.297, 534.650 317.500 C 528.302 303.674, 515.858 296, 499.787 296 C 484.001 296, 468.162 305.503, 459.764 320.015 C 458.337 322.482, 453.126 334.400, 448.184 346.500 C 436.534 375.025, 398.524 467.895, 386.280 497.750 L 376.745 521 354.372 521 L 332 521 332.006 518.250 C 332.009 516.737, 335.382 475.900, 339.501 427.500 C 343.621 379.100, 346.993 336.769, 346.996 333.432 C 347.011 311.776, 331.089 295.806, 309.775 296.100 C 305.774 296.156, 300.757 296.610, 298.628 297.110" stroke="none" fill="#000000" fill-rule="evenodd"/><path d="M 1 500 L 1 999 500 999 L 999 999 999 500 L 999 1 500 1 L 1 1 1 500 M 298.628 297.110 C 287.117 299.813, 273.027 311.092, 267.475 322.048 C 264.343 328.230, 189.913 495.893, 189.255 498.250 C 188.795 499.899, 191.517 500, 236.433 500 L 284.099 500 283.508 505.750 C 282.896 511.703, 273.585 639.442, 272.410 658 C 271.023 679.917, 277.629 693.291, 293.500 700.699 C 298.896 703.218, 300.557 703.497, 310 703.468 C 322.402 703.431, 328.566 701.442, 337.743 694.518 C 349.348 685.761, 343.121 698.742, 416.538 530.250 L 438.434 480 460.654 480 L 482.874 480 482.411 483.250 C 482.156 485.038, 478.572 519.350, 474.447 559.500 C 470.321 599.650, 466.283 638.505, 465.473 645.845 C 464.663 653.185, 464 662.731, 464 667.058 C 464 684.378, 473.191 697.157, 489.240 702.152 C 508.712 708.212, 530.513 699.447, 542.251 680.838 C 543.175 679.374, 548.849 666.774, 554.860 652.838 C 566.356 626.189, 613.615 517.067, 623.651 494 L 629.525 480.500 651.909 480.230 L 674.293 479.961 673.703 486.730 C 673.378 490.454, 669.001 531.750, 663.976 578.500 C 657.838 635.604, 654.979 665.854, 655.265 670.673 C 656.579 692.850, 678.016 707.645, 701.617 702.665 C 715.313 699.775, 727.798 691.099, 734.236 680 C 737.296 674.723, 813 502.808, 813 501.134 C 813 500.304, 800.266 500, 765.547 500 L 718.094 500 718.593 495.250 C 719.124 490.201, 727.107 379.863, 729.147 349.394 C 730.232 333.176, 730.183 330.578, 728.679 324.480 C 724.764 308.617, 713.046 298.649, 695.775 296.491 C 680.528 294.586, 662.078 303.875, 652.980 318.036 C 650.311 322.191, 636.792 354.586, 587.477 475 C 577.679 498.925, 569.233 519.063, 568.709 519.750 C 567.997 520.683, 562.216 521, 545.937 521 C 533.936 521, 523.941 520.663, 523.725 520.250 C 523.509 519.837, 526.639 479.900, 530.682 431.500 C 538.871 333.453, 539.092 327.115, 534.661 317.500 C 528.283 303.663, 515.854 296, 499.787 296 C 484.001 296, 468.162 305.503, 459.764 320.015 C 458.337 322.482, 453.126 334.400, 448.184 346.500 C 436.534 375.025, 398.524 467.895, 386.280 497.750 L 376.745 521 354.372 521 L 332 521 332.006 518.250 C 332.009 516.737, 335.382 475.900, 339.501 427.500 C 343.621 379.100, 346.993 336.769, 346.996 333.432 C 347.011 311.776, 331.089 295.806, 309.775 296.100 C 305.774 296.156, 300.757 296.610, 298.628 297.110" stroke="none" fill="#ffffff" fill-rule="evenodd"/></svg>